<?xml version="1.0" encoding="UTF-8"?>
<svg id="Layer_2" data-name="Layer 2" xmlns="http://www.w3.org/2000/svg" viewBox="0 0 1920.29 290.48" fill='#f4f4f5'>
  <defs>
    <style>
      .cls-1 {
        stroke-width: 0px;
      }
    </style>
  </defs>
  <g id="Layer_1-2" data-name="Layer 1">
    <g>
      <path class="cls-1" d="m128.71,226.32c19.29,0,32.28-7.87,31.49-22.04-.39-13.77-12.2-20.47-45.66-28.34C41.33,159.01,5.12,132.65,5.12,87.77,5.12,33.85,51.17,0,123.2,0c64.55,0,109.42,38.96,116.11,99.58l-79.9,2.75c-1.97-24.4-16.14-38.57-38.57-38.57-21.25,0-35.03,10.23-33.46,25.58,1.57,14.96,18.89,21.26,44.48,26.37,71.64,13.38,110.6,42.12,110.6,87.78,0,54.31-46.44,86.98-114.54,86.98C53.53,290.48,3.94,252.69,0,191.68l80.69-3.93c3.94,23.62,20.47,38.57,48.02,38.57Z"/>
      <path class="cls-1" d="m381.39,29.52v47.63h53.92v55.89h-53.92v74c0,13.78,7.87,22.04,21.25,22.04h34.24v56.68h-57.07c-52.74,0-79.51-24.8-79.51-78.72v-74h-37v-55.89h37V29.52h81.08Z"/>
      <path class="cls-1" d="m551.81,6.3h106.67c84.23,0,126.35,22.83,126.35,77.54,0,32.67-19.68,51.96-57.07,56.68v1.18c46.84,5.12,68.88,26.37,68.88,64.95,0,52.35-40.93,79.11-122.41,79.11h-122.41V6.3Zm116.11,111c19.68,0,35.42-7.08,35.42-24.4s-15.35-24.79-35.42-24.79h-34.24v49.2h34.24Zm9.45,106.67c20.47,0,37.79-7.87,37.79-26.76s-16.92-27.16-37.79-27.16h-43.69v53.93h43.69Z"/>
      <path class="cls-1" d="m942.63,72.42c67.7,0,114.93,48.02,111.78,121.23l-.39,7.48h-143.66c.39,21.65,12.99,35.43,32.28,35.43,12.99,0,24.8-7.87,29.13-18.89l79.9,5.51c-12.99,41.33-54.71,67.31-109.03,67.31-70.06,0-116.51-43.3-116.51-109.03s46.44-109.03,116.51-109.03Zm31.49,87.38c-1.18-21.65-14.17-33.45-31.49-33.45-18.5,0-31.09,13.38-32.28,33.45h63.76Z"/>
      <path class="cls-1" d="m1310.24,285.75h-79.11l-1.18-30.3c-11.81,22.43-33.06,35.03-61.01,35.03-55.5,0-88.17-44.08-88.17-109.03s32.67-109.03,88.17-109.03c25.98,0,47.23,12.2,60.22,35.03V6.3h81.08v279.46Zm-112.18-51.96c22.44,0,34.64-22.83,34.64-52.35s-12.6-52.75-34.64-52.75-35.03,21.65-35.03,52.75,13.78,52.35,35.03,52.35Z"/>
      <path class="cls-1" d="m1458.23,72.42c67.7,0,114.93,48.02,111.78,121.23l-.39,7.48h-143.66c.39,21.65,12.99,35.43,32.28,35.43,12.99,0,24.8-7.87,29.13-18.89l79.9,5.51c-12.99,41.33-54.71,67.31-109.03,67.31-70.06,0-116.51-43.3-116.51-109.03s46.44-109.03,116.51-109.03Zm31.49,87.38c-1.18-21.65-14.17-33.45-31.49-33.45-18.5,0-31.09,13.38-32.28,33.45h63.76Z"/>
      <path class="cls-1" d="m1646.75,140.91h-42.12l19.68-63.37h-27.16V6.3h80.69v71.24l-31.09,63.37Z"/>
      <path class="cls-1" d="m1813.63,121.23c-13.78,0-23.22,7.48-22.04,18.89,1.18,11.02,11.41,16.14,28.73,18.89,73.6,10.23,99.58,28.74,99.58,66.52,0,42.51-37,64.94-101.94,64.94-70.85,0-110.6-25.98-114.14-71.24l80.29-3.54c3.15,16.14,13.78,24.79,31.09,24.79,11.41,0,22.83-5.51,22.04-15.35-.39-11.81-12.6-16.14-29.91-18.89-74.39-13.38-98.79-30.7-98.79-66.91,0-42.9,37-67.7,106.67-67.7,61.4,0,98.01,26.76,105.09,73.61l-79.9,2.36c-1.97-16.53-13.38-26.37-26.76-26.37Z"/>
    </g>
  </g>
</svg>